<svg width="96" height="96" viewBox="0 0 435 392" fill="none" xmlns="http://www.w3.org/2000/svg">
<rect width="96" height="96" fill="none"/>
<g filter="url(#filter0_d_0_1)">
<path d="M381.483 383.6C372.416 383.6 363.216 382.4 353.883 380C344.549 377.867 336.149 375.333 328.683 372.4C316.416 367.333 303.749 361.733 290.683 355.6C277.883 349.467 267.349 344.667 259.083 341.2C256.149 339.867 252.416 338.533 247.883 337.2C243.616 335.6 239.883 334.267 236.683 333.2C233.483 335.333 229.216 338.267 223.883 342C218.816 345.733 213.216 349.067 207.083 352C202.816 354.133 198.683 355.733 194.683 356.8C190.949 357.6 187.483 358 184.283 358C177.883 358 172.949 356.533 169.483 353.6C165.749 350.4 163.883 346.8 163.883 342.8C163.883 339.333 165.083 336.267 167.483 333.6C172.016 328.267 177.216 324.667 183.083 322.8C189.216 320.933 195.616 320 202.283 320C213.216 320 224.549 321.467 236.283 324.4C243.216 318.267 250.149 309.733 257.083 298.8C264.283 287.867 271.349 275.733 278.283 262.4C285.483 248.8 292.816 235.067 300.283 221.2C307.749 207.333 315.349 194.667 323.083 183.2C328.416 175.2 334.283 167.733 340.683 160.8C347.349 153.6 354.549 147.733 362.283 143.2C370.283 138.667 378.949 136.4 388.283 136.4C398.416 136.4 404.949 139.467 407.883 145.6C408.683 147.467 409.083 148.933 409.083 150C409.083 151.6 408.416 152.4 407.083 152.4C406.016 152.4 404.816 151.2 403.483 148.8C402.683 146.933 400.016 146 395.483 146C391.749 146 387.483 146.667 382.683 148C374.416 150.667 365.883 156.267 357.083 164.8C348.549 173.333 340.283 183.333 332.283 194.8C324.549 205.733 316.683 217.867 308.683 231.2C300.683 244.533 292.816 257.6 285.083 270.4C277.349 283.2 270.016 294.667 263.083 304.8C256.149 314.933 249.749 322.4 243.883 327.2C256.949 331.2 270.149 336.267 283.483 342.4C297.083 348.533 310.283 354.267 323.083 359.6C336.149 364.933 348.549 368.8 360.283 371.2C367.483 372.8 374.416 373.6 381.083 373.6C398.416 373.6 410.949 369.467 418.683 361.2C422.949 356.933 425.083 351.733 425.083 345.6C425.083 340 423.349 334.133 419.883 328C417.483 324 413.083 319.467 406.683 314.4C400.283 309.067 394.016 305.467 387.883 303.6C387.083 303.6 386.683 303.2 386.683 302.4C386.683 301.867 386.949 301.333 387.483 300.8C388.283 300 389.216 299.733 390.283 300C397.216 301.867 403.883 305.6 410.283 311.2C416.949 316.8 421.483 321.6 423.883 325.6C428.149 333.067 430.283 340.133 430.283 346.8C430.283 358 425.483 366.933 415.883 373.6C406.283 380.267 394.816 383.6 381.483 383.6ZM183.083 353.6C187.616 353.6 192.549 352.533 197.883 350.4C203.216 348.267 206.816 346.667 208.683 345.6C212.416 343.467 216.016 341.2 219.483 338.8C222.949 336.4 226.283 333.733 229.483 330.8C225.483 329.733 221.616 328.933 217.883 328.4C214.149 327.867 210.416 327.6 206.683 327.6C200.549 327.6 194.816 328.667 189.483 330.8C184.416 332.667 180.149 336.133 176.683 341.2C175.616 342.267 175.083 344.133 175.083 346.8C175.083 349.2 175.883 350.933 177.483 352C179.083 353.067 180.949 353.6 183.083 353.6Z" fill="#CCDDFF" fill-opacity="0.972549" shape-rendering="crispEdges"/>
</g>
<g filter="url(#filter1_d_0_1)">
<path d="M94.8969 246.8C82.6302 246.8 71.0302 245.6 60.0969 243.2C49.4302 241.067 40.7635 236.8 34.0969 230.4C27.4302 224 24.0969 214.933 24.0969 203.2C24.0969 200 24.3635 196.667 24.8969 193.2C25.4302 189.467 26.2302 185.6 27.2969 181.6C29.9635 172.267 33.8302 162.533 38.8969 152.4C43.9635 142 49.8302 131.467 56.4969 120.8C68.2302 101.333 83.0302 81.8667 100.897 62.4C118.764 42.6667 136.764 24.4 154.897 7.6C140.764 7.86666 126.364 8.79999 111.697 10.4C97.2969 11.7333 84.0969 13.3333 72.0969 15.2C60.0969 17.0667 50.4969 19.2 43.2969 21.6C34.2302 24.2667 26.7635 27.3333 20.8969 30.8C15.2969 34.2667 12.4969 37.8667 12.4969 41.6C12.4969 46.4 18.0969 51.3333 29.2969 56.4C29.8302 56.6667 30.0969 57.2 30.0969 58C30.0969 60.4 28.8969 61.3333 26.4969 60.8C19.0302 57.6 13.4302 54.1333 9.69688 50.4C6.23021 46.4 4.49687 42.4 4.49687 38.4C4.49687 33.6 7.03021 28.9333 12.0969 24.4C17.4302 19.8667 24.8969 16.1333 34.4969 13.2C39.0302 11.8667 46.4969 10.5333 56.8969 9.2C67.2969 7.59999 79.5635 6.13332 93.6969 4.79998C107.83 3.46665 122.764 2.39998 138.497 1.59998C154.497 0.799989 170.097 0.399994 185.297 0.399994C200.764 0.399994 215.164 0.933328 228.497 2C241.83 3.06667 252.897 4.93333 261.697 7.6C270.497 10 275.83 13.4667 277.697 18C278.497 19.6 278.897 21.4667 278.897 23.6C278.897 28.1333 277.297 33.0667 274.097 38.4C270.897 43.4667 267.164 48.2667 262.897 52.8C261.564 54.1333 260.23 54.8 258.897 54.8C257.297 54.8 256.497 54 256.497 52.4C256.497 51.3333 257.03 50.2667 258.097 49.2C265.297 41.7333 268.23 34.5333 266.897 27.6C266.364 23.8667 263.564 20.8 258.497 18.4C253.697 15.7333 247.564 13.6 240.097 12C232.897 10.4 225.164 9.19999 216.897 8.39999C208.63 7.59998 200.897 7.19998 193.697 7.19998C183.03 7.19998 175.297 7.86665 170.497 9.2C168.097 9.73333 164.097 12.5333 158.497 17.6C152.897 22.6667 146.497 28.9333 139.297 36.4C132.364 43.6 125.297 51.2 118.097 59.2C111.164 67.2 104.764 74.5333 98.8969 81.2C93.0302 87.8667 88.6302 92.9333 85.6969 96.4C98.2302 95.0667 110.364 94 122.097 93.2C134.097 92.1333 146.63 91.6 159.697 91.6C166.097 91.6 172.63 91.7333 179.297 92C186.23 92.2667 193.43 92.8 200.897 93.6C205.164 93.8667 207.297 94.8 207.297 96.4C207.297 97.4667 206.364 98.4 204.497 99.2C202.63 100 201.03 100.4 199.697 100.4C196.23 100.4 192.497 100.4 188.497 100.4C184.764 100.133 180.764 100 176.497 100C165.297 100 153.564 100.267 141.297 100.8C129.03 101.333 117.43 102.133 106.497 103.2C95.5635 104.267 86.2302 105.467 78.4969 106.8C70.2302 118.267 62.4969 130.8 55.2969 144.4C48.3635 157.733 43.4302 170.667 40.4969 183.2C38.8969 189.6 38.0969 195.467 38.0969 200.8C38.0969 210.667 40.3635 218.4 44.8969 224C49.6969 229.333 55.9635 233.067 63.6969 235.2C71.4302 237.333 79.8302 238.4 88.8969 238.4C100.63 238.4 114.364 237.067 130.097 234.4C145.83 232 161.697 227.867 177.697 222C193.964 215.867 208.23 207.867 220.497 198C225.03 194.533 229.03 190.667 232.497 186.4C236.23 182.133 239.564 177.733 242.497 173.2C243.297 172.133 243.964 171.6 244.497 171.6C245.297 171.6 245.697 172.267 245.697 173.6C245.697 174.933 245.297 176.267 244.497 177.6C241.83 181.867 238.897 186.267 235.697 190.8C232.497 195.333 229.03 199.467 225.297 203.2C213.564 214.667 200.364 223.6 185.697 230C171.297 236.4 156.23 240.8 140.497 243.2C125.03 245.6 109.83 246.8 94.8969 246.8Z" fill="#CCDDFF" fill-opacity="0.972549" shape-rendering="crispEdges"/>
</g>
<defs>
<filter id="filter0_d_0_1" x="159.883" y="136.4" width="274.4" height="255.2" filterUnits="userSpaceOnUse" color-interpolation-filters="sRGB">
<feFlood flood-opacity="0" result="BackgroundImageFix"/>
<feColorMatrix in="SourceAlpha" type="matrix" values="0 0 0 0 0 0 0 0 0 0 0 0 0 0 0 0 0 0 127 0" result="hardAlpha"/>
<feOffset dy="4"/>
<feGaussianBlur stdDeviation="2"/>
<feComposite in2="hardAlpha" operator="out"/>
<feColorMatrix type="matrix" values="0 0 0 0 0 0 0 0 0 0 0 0 0 0 0 0 0 0 0.25 0"/>
<feBlend mode="normal" in2="BackgroundImageFix" result="effect1_dropShadow_0_1"/>
<feBlend mode="normal" in="SourceGraphic" in2="effect1_dropShadow_0_1" result="shape"/>
</filter>
<filter id="filter1_d_0_1" x="0.496887" y="0.400009" width="282.4" height="254.4" filterUnits="userSpaceOnUse" color-interpolation-filters="sRGB">
<feFlood flood-opacity="0" result="BackgroundImageFix"/>
<feColorMatrix in="SourceAlpha" type="matrix" values="0 0 0 0 0 0 0 0 0 0 0 0 0 0 0 0 0 0 127 0" result="hardAlpha"/>
<feOffset dy="4"/>
<feGaussianBlur stdDeviation="2"/>
<feComposite in2="hardAlpha" operator="out"/>
<feColorMatrix type="matrix" values="0 0 0 0 0 0 0 0 0 0 0 0 0 0 0 0 0 0 0.25 0"/>
<feBlend mode="normal" in2="BackgroundImageFix" result="effect1_dropShadow_0_1"/>
<feBlend mode="normal" in="SourceGraphic" in2="effect1_dropShadow_0_1" result="shape"/>
</filter>
</defs>
</svg>
